<?xml version="1.0" standalone="no"?>
<!DOCTYPE svg PUBLIC "-//W3C//DTD SVG 20010904//EN"
 "http://www.w3.org/TR/2001/REC-SVG-20010904/DTD/svg10.dtd">
<svg version="1.0" xmlns="http://www.w3.org/2000/svg"
 width="612.000000pt" height="612.000000pt" viewBox="0 0 612.000000 612.000000"
 preserveAspectRatio="xMidYMid meet">
<metadata>
Created by potrace 1.14, written by Peter Selinger 2001-2017
</metadata>
<g transform="translate(0.000000,612.000000) scale(0.100000,-0.100000)"
fill="#000000" stroke="none">
<path d="M1525 5870 c-91 -56 -263 -175 -312 -217 -11 -10 -46 -38 -77 -63
-90 -73 -326 -318 -405 -420 -142 -183 -276 -405 -357 -591 -64 -148 -142
-397 -170 -544 -4 -22 -8 -44 -9 -50 -2 -5 -10 -55 -19 -110 -10 -55 -19 -111
-21 -124 -17 -101 -23 -355 -11 -474 25 -251 123 -429 255 -463 77 -19 168 21
222 100 l22 33 41 -15 c72 -24 154 -6 260 58 99 60 213 110 300 132 186 47
318 -7 397 -164 33 -65 74 -213 83 -298 45 -420 136 -786 265 -1065 l46 -100
-18 -70 c-25 -97 -33 -239 -17 -317 17 -87 61 -174 117 -232 94 -96 183 -133
342 -141 219 -12 245 -16 316 -53 123 -63 239 -270 294 -527 l17 -79 20 39
c23 48 47 55 80 24 l24 -22 0 30 c0 66 18 78 65 41 34 -26 34 -30 -19 109 -73
188 -111 412 -87 516 l9 38 -41 -6 c-115 -17 -150 -10 -165 33 -14 42 -1 75
33 83 178 42 181 42 252 20 84 -24 121 -30 248 -36 214 -10 272 -23 359 -79
118 -75 205 -232 261 -471 23 -97 38 -191 37 -227 -1 -24 10 -23 26 2 29 47
87 40 130 -14 l19 -25 6 60 c8 93 52 125 105 76 l24 -22 -7 25 c-4 14 -15 43
-25 65 -73 163 -129 429 -129 610 0 93 -3 119 -13 116 -7 -2 -24 -7 -38 -11
-56 -16 -126 6 -175 54 -38 39 -85 132 -85 170 0 7 37 33 83 57 45 24 208 128
362 230 342 227 342 227 443 278 191 98 338 131 557 126 153 -4 264 -22 393
-63 34 -11 62 -18 62 -15 0 3 6 0 13 -6 8 -6 17 -8 20 -5 7 7 -89 82 -158 125
-22 13 -49 30 -60 36 -82 51 -266 124 -370 148 -94 22 -207 32 -320 30 -108
-3 -139 -6 -241 -26 -28 -5 -64 -12 -80 -15 -16 -3 -45 -9 -64 -14 -19 -5 -46
-11 -60 -14 -14 -3 -77 -17 -140 -31 -269 -63 -434 -74 -598 -41 -55 12 -40
21 54 33 189 24 410 101 566 199 209 131 402 346 558 619 112 195 172 273 240
314 64 38 140 21 203 -45 17 -19 34 -34 38 -34 4 0 25 37 48 83 58 116 69 215
39 331 -31 116 -90 207 -186 289 -96 81 -312 172 -455 192 -27 4 -59 9 -70 11
-41 9 -262 5 -327 -5 -123 -20 -237 -57 -362 -116 -26 -13 -49 -20 -52 -17 -4
3 -6 40 -6 82 0 141 44 246 116 276 39 17 102 18 140 4 20 -8 29 -8 35 2 5 7
3 16 -4 20 -8 5 -8 8 -1 8 12 0 10 66 -3 150 -4 25 -8 52 -8 60 -5 47 -65 189
-92 218 -7 7 -13 17 -13 22 0 17 -105 112 -160 144 -112 66 -229 97 -380 101
-265 8 -460 -74 -656 -276 -148 -154 -271 -341 -410 -626 -46 -95 -84 -175
-84 -179 0 -19 -179 -358 -212 -401 -77 -100 -162 -153 -319 -200 l-66 -20
-44 32 c-24 17 -66 44 -93 60 l-49 29 39 13 c144 49 261 147 329 275 31 58 32
71 4 63 -70 -23 -250 1 -303 40 -17 13 -17 15 3 52 90 165 113 351 66 538 -26
102 -85 235 -139 310 l-36 50 0 -78 c0 -142 -63 -280 -181 -395 -61 -60 -57
-62 -107 58 -41 101 -42 102 -61 170 -62 215 -75 482 -36 735 27 175 103 408
191 589 19 38 33 71 31 72 -2 2 -48 -23 -102 -56z"/>
</g>
</svg>
